<?xml version="1.0" encoding="utf-8"?>
<!-- Generator: Adobe Illustrator 12.0.0, SVG Export Plug-In . SVG Version: 6.00 Build 51448)  -->
<!DOCTYPE svg PUBLIC "-//W3C//DTD SVG 1.1//EN" "http://www.w3.org/Graphics/SVG/1.1/DTD/svg11.dtd" [
	<!ENTITY ns_svg "http://www.w3.org/2000/svg">
	<!ENTITY ns_xlink "http://www.w3.org/1999/xlink">
]>
<svg  version="1.1" id="レイヤー_1" xmlns="&ns_svg;" xmlns:xlink="&ns_xlink;" width="609.513" height="609.45"
	 viewBox="0 0 609.513 609.45" overflow="visible" enable-background="new 0 0 609.513 609.45" xml:space="preserve">
<g>
	<path fill-rule="evenodd" clip-rule="evenodd" d="M199.335,151.271c4.662,1.036-2.973,7.206-4.363,13.091
		c-2.892,12.233-1.815,29.619,2.909,39.272c-5.958,1.719-6.902-9.037-7.272-14.545C189.749,176.318,194.775,157.565,199.335,151.271
		z"/>
	<path fill-rule="evenodd" clip-rule="evenodd" d="M218.244,175.999c0.41,2.349-1.375,2.504-1.455,4.364
		c-1.178-0.277-1.45-1.459-2.909-1.455c0-0.97,0-1.939,0-2.909C215.335,175.999,216.79,175.999,218.244,175.999z"/>
	<path fill-rule="evenodd" clip-rule="evenodd" fill="#FFFFFF" d="M277.88,187.635c4.411-0.048,3.624,5.103,4.364,8.727
		c-2.609-0.185-3.068,1.781-5.818,1.455C278.429,195.942,277.865,191.499,277.88,187.635z"/>
	<path fill-rule="evenodd" clip-rule="evenodd" d="M257.517,202.18c-0.351,2.559-2.503,3.315-5.818,2.909
		C252.049,202.53,254.201,201.773,257.517,202.18z"/>
	<path fill-rule="evenodd" clip-rule="evenodd" d="M260.425,206.544c1.461,5.277,1.719,10.843-4.363,14.545
		c-5.181,0.333-7.605-2.092-7.273-7.272c-6.175-0.357-7.832,3.805-14.545,2.909C236.016,206.376,249.847,208.086,260.425,206.544z"
		/>
	<path fill-rule="evenodd" clip-rule="evenodd" d="M241.517,222.543c-0.514,1.911-2.561,2.288-2.909,4.364
		c3.315,0.407,5.468-0.35,5.818-2.909c5.607,4.161-5.993,8.227-8.728,4.364C235.023,223.808,236.963,221.869,241.517,222.543z"/>
	<path fill-rule="evenodd" clip-rule="evenodd" fill="#FFFFFF" d="M224.062,226.907c3.354-0.445,1.616,4.202,4.364,4.364
		C226.67,235.653,222.067,231.05,224.062,226.907z"/>
	<path fill-rule="evenodd" clip-rule="evenodd" fill="#FFFFFF" d="M283.698,232.725c3.213,0.182,0.618,6.17,1.455,8.728
		C282.366,240.223,281.217,235.072,283.698,232.725z"/>
	<path fill-rule="evenodd" clip-rule="evenodd" d="M273.516,237.089c0.136,4.499-4.393,4.334-8.727,4.364
		C266.829,239.129,269.8,237.736,273.516,237.089z"/>
	<path fill-rule="evenodd" clip-rule="evenodd" fill="#FFFFFF" d="M279.334,239.998c4.727,3.031,5.883,9.632,8.727,14.545
		c-2.028,3.782-7.528-1.062-10.182-1.455C276.738,247.099,280.112,245.625,279.334,239.998z"/>
	<path fill-rule="evenodd" clip-rule="evenodd" fill="#FFFFFF" d="M274.971,244.362c4.356,0.957-1.391,3.109,0,5.818
		C271.353,249.961,274.545,245.254,274.971,244.362z"/>
	<path fill-rule="evenodd" clip-rule="evenodd" fill="#FFFFFF" d="M272.062,314.179c-5.579-6.938-15.006,6.806-24.727,8.728
		c-2.02-8.175,14.854-9.142,16-18.909c-4.715-0.797-12.411,7.923-17.455,11.636c-2.407-7.953,7.779-11.923,13.091-16
		c6.428-4.932,12.471-10.25,18.909-13.091c1.83-0.36,1.467-2.892,0-2.909c24.448,2.858,37.164-24.097,65.454-17.455
		c15.73,19.973-10.189,29.506-31.999,29.091c-11.43,14.752-21.948,30.416-42.182,36.363c1.875-5.397,9.858-4.687,10.182-11.636
		c-9.82-4.938-14.109,8.169-23.272,8.727C259.89,322.371,268.881,321.18,272.062,314.179z"/>
	<path fill-rule="evenodd" clip-rule="evenodd" d="M215.335,287.998c-6.089,4.286-12.057-1.887-14.545-5.818
		C202.627,270.843,217,278.74,215.335,287.998z M208.062,286.543c4.243,2.139,4.243-6.502,0-4.363
		C208.062,283.634,208.062,285.088,208.062,286.543z"/>
	<path fill-rule="evenodd" clip-rule="evenodd" fill="#FFFFFF" d="M208.062,282.18c4.243-2.139,4.243,6.502,0,4.363
		C208.062,285.088,208.062,283.634,208.062,282.18z"/>
	<path fill-rule="evenodd" clip-rule="evenodd" d="M240.062,290.907c0.661,6.508-8.743,15.478-14.545,20.363
		C228.831,302.949,234.952,297.433,240.062,290.907z"/>
	<path fill-rule="evenodd" clip-rule="evenodd" fill="#FFFFFF" d="M178.972,296.725c0.45-1.974,3.642-1.207,5.818-1.454
		C184.384,298.642,180.905,298.614,178.972,296.725z"/>
	<path fill-rule="evenodd" clip-rule="evenodd" fill="#FFFFFF" d="M174.608,296.725c10.222,11.597,23.484,20.153,36.363,29.091
		c0,9.696,0,19.394,0,29.09c-1.782-0.464-8.983,0.234-4.363,1.455c-13.773,2.607-33.325-1.574-42.182-8.728
		C166.393,329.237,169.124,311.605,174.608,296.725z"/>
	<path fill-rule="evenodd" clip-rule="evenodd" d="M245.88,296.725c3.762,7.68-8.677,11.657-10.182,18.909
		C232.64,308.657,243.795,303.397,245.88,296.725z"/>
	<path fill-rule="evenodd" clip-rule="evenodd" fill="#FFFFFF" d="M200.79,302.543C197.359,307.222,194.91,297.427,200.79,302.543
		L200.79,302.543z"/>
	<path fill-rule="evenodd" clip-rule="evenodd" fill="#FFFFFF" d="M231.335,423.269c7.835-3.33,15.151-19.747,27.636-23.272
		c-10.02,20.918-29.83,44.583-20.363,75.636c-1.084-20.07,3.85-41.29,11.636-56.727c-1.726,25.924-1.548,55.544,10.182,74.181
		c-5.818,0-11.636,0-17.454,0c4.125-3.48,2.002-5.921-4.364-5.817c-0.77-13.776-10.867-18.224-18.909-24.728
		c-6.889-32.771-3.716-66.889-10.182-100.362c-0.247-5.751,2.235,0.465,4.364-2.909c0.542-10.124-1.341-22.674,1.455-30.546
		c14.846,6.003,24.355,17.342,40.727,21.818c0.435,10.716-2.044,24.348,4.363,29.091c4.722,0.843,6.767-0.991,10.182-1.454
		C263.795,399.488,241.14,404.954,231.335,423.269z"/>
	<path fill-rule="evenodd" clip-rule="evenodd" fill="#FFFFFF" d="M176.063,359.27c12.252,4.844,18.193-1.072,30.545,1.454
		c0.457,4.355,1.135,20.161-4.364,23.272c8.578,23.423,9.51,54.489,14.545,81.454c1.521,4.782,8.182,4.424,11.636,7.272
		c4.782,7.339,5.77,18.473,11.636,24.728c2.833,1.55,6.86,0.439,10.182,4.363c-7.479,3.188-14.296,7.037-26.182,5.818
		c1.015-4.733,6.622-2.612,7.273-4.363c-2.905-7.762-9.101-12.233-8.728-23.273c-5.186,8.144,1.35,17.039,4.364,21.818
		c-22.4,3.652-21.33-22.175-24.727-36.363c-8.055-33.641-32.564-58.866-26.182-101.817
		C174.317,361.723,175.496,361.345,176.063,359.27z"/>
	<path fill-rule="evenodd" clip-rule="evenodd" fill="#FFFFFF" d="M208.062,376.724c2.977-1.933,0.786,13.704,1.455,18.909
		C206.54,397.566,208.731,381.929,208.062,376.724z"/>
	<path fill-rule="evenodd" clip-rule="evenodd" fill="#FFFFFF" d="M359.333,426.178c9.026,9.883,18.203,19.614,30.546,26.182
		c-3.204,6.009-10.672,7.753-17.455,10.182C366.547,451.934,363.736,438.261,359.333,426.178z"/>
	<path fill-rule="evenodd" clip-rule="evenodd" fill="#FFFFFF" d="M324.425,456.723c4.977-0.613,4.37,4.356,7.272,5.818
		c-4.999,3.729-10.825,6.63-17.454,8.728C317.753,466.537,322.04,462.581,324.425,456.723z"/>
	<path fill-rule="evenodd" clip-rule="evenodd" fill="#FFFFFF" d="M331.698,466.905C338.82,466.43,320.146,467.675,331.698,466.905
		L331.698,466.905z"/>
	<path fill-rule="evenodd" clip-rule="evenodd" fill="#FFFFFF" d="M180.426,481.451c0.45-1.975,3.642-1.207,5.818-1.455
		C185.794,481.97,182.603,481.203,180.426,481.451z"/>
	<path fill-rule="evenodd" clip-rule="evenodd" fill="#FFFFFF" d="M168.79,482.905c0.626-3.252,7.168-0.589,10.182-1.454
		C178.345,484.703,171.803,482.04,168.79,482.905z"/>
	<path fill-rule="evenodd" clip-rule="evenodd" fill="#FFFFFF" d="M344.789,485.814c2.777,3.041,4.69,6.946,5.818,11.637
		C346.117,496.123,345.777,490.644,344.789,485.814z"/>
	<path fill-rule="evenodd" clip-rule="evenodd" d="M180.426,495.996c-2.564-2.693-4.504,0.375-5.818,2.909
		C169.244,497.167,180.908,488.406,180.426,495.996z"/>
	<path fill-rule="evenodd" clip-rule="evenodd" d="M168.79,509.086c0.45-1.974,3.642-1.206,5.818-1.454
		C174.158,509.606,170.966,508.838,168.79,509.086z"/>
	<path fill-rule="evenodd" clip-rule="evenodd" d="M173.153,513.451c-0.245-3.154,5.159-0.659,7.273-1.455
		C180.671,515.15,175.267,512.655,173.153,513.451z"/>
	<path fill-rule="evenodd" clip-rule="evenodd" d="M555.696,511.996c2.959,2.372,4.829,11.516-1.454,11.637
		C555.121,520.148,556.333,516.996,555.696,511.996z"/>
	<path fill-rule="evenodd" clip-rule="evenodd" d="M542.605,519.268c2.33-3.63,8.582,1,8.728,4.364
		C546.992,523.609,546.386,519.85,542.605,519.268z"/>
	<path fill-rule="evenodd" clip-rule="evenodd" d="M293.88,181.817c-0.224,10.442,0.866,22.199-1.455,30.545
		c-7.104-1.156-0.097-9.814-1.455-14.545c-5.14,13.462-4.063,43.068,0,56.727c12.911-1.028,25.678-7.073,39.272-2.909
		c2.423,1.941,0.486,8.241,2.909,10.182c3.879,0,7.758,0,11.637,0c3.57,4.672,5.879,10.605,8.727,16
		c-1.479,5.793-4.402,10.142-8.727,13.091c27.122,26.211,48.321,58.345,56.727,103.271c26.784,17.13,45.919,45.212,69.817,65.454
		c9.549,8.088,30.405,14.623,42.182,23.272c3.514,2.581,5.45,7.594,8.728,10.182c9.722,7.679,21.782,10.668,32,17.455
		c-28.718-6.194-46.325-36.098-78.545-43.637c-21.802-21.739-50.892-50.725-80-72.727c-14.709-11.117-28.51-24.243-49.454-14.545
		c3.058,13.428,7.018,25.951,10.182,39.272c27.725,31.427,63.394,54.908,110.545,66.908c-4.438,13.796-0.57,28.634,11.636,29.091
		c5.238,0.196,7.161-3.607,13.091-5.818c3.389,2.638,12.878,5.995,20.364,8.728c-7.369,3.57-10.133-4.203-18.909-4.363
		c-5.907-0.108-11.001,4.859-16,4.363c-12.343-1.226-16.136-10.276-14.545-29.091c-24.201-10.223-51.671-17.178-69.818-33.454
		c-7.752,2.914-11.139,10.194-20.363,11.636c9.746,24.287,24.744,40.474,46.545,53.818c8.585,5.255,22.966,7.783,24.728,20.363
		c-23.087,3.188-53.392,11.085-68.363-4.363c-7.469,1.166-11.047-1.56-16-2.909c11.244-6.528,21.058,6.489,32,8.727
		c16.557,3.387,31.392-3.608,49.454-2.908c-16.364-16.605-42.974-22.966-53.817-45.091c-18.949-13.536-19.204-45.766-32-65.454
		c-1.533-15.914-11.27-39.831-11.637-56.727c0.917,8.842,12.197,1.154,20.364,1.454c15.366,0.564,22.614,11.743,33.454,17.454
		c-7.675-43.233-30.13-71.687-53.818-98.908c-10.273,4.308-19.756,0.941-27.636,4.363c-9.924,4.31-19.304,23.533-29.091,30.545
		c-5.976,4.282-13.342,5.96-21.818,8.728c-7.556-2.646,5.349-7.569,5.818-11.637c-4.572,1.246-6.138,5.498-11.636,5.818
		c1.572,14.912-3.366,36.336,2.909,46.545c14.303,1.55,16.391-21.317,24.727-30.545c13.604,1.354,17.889-11.084,29.091-16
		c6.167,4.984,16.68,5.623,23.272,10.182c3.363,8.273,4.026,19.246,4.363,30.545c-4.237-10.112-1.666-20.534-7.272-27.636
		c-5.36-6.79-13.103-4.582-20.363-10.182c-13.399,7.125-23.936,21.235-33.454,34.908c-3.764,5.407-5.463,10.233-8.728,16
		c-1.137,2.009-4.908,2.592-5.818,4.364c-1.184,2.305-0.141,6.27-1.455,8.727c-1.686,3.152-5.806,5.46-7.273,8.728
		c-4.13,9.2-7.042,23.745-7.272,34.909c-0.432,20.871,7.734,34.759,13.091,53.817c10.294,0.597,18.997-0.397,26.182-2.909
		c10.794-13.448,20.872-27.613,29.09-43.636c-7.495-11.362-21.214-33.577-23.272-52.363c-0.311-2.838-0.801-10.651,0-13.091
		c0.006-0.02,3.636,7.714,1.455,8.727c6.44,44.469,37.79,64.028,52.364,100.363c0.77,2.239,1.518,0.093,1.454-1.454
		c2.564,9.472-11.626,37.297,5.818,40.727c-21.355,0.593-3.66-41.729-20.363-50.909c-11.291-0.261-21.455,6.267-27.637-2.908
		c-9.22,16.158-39.715,27.99-56.727,18.908c-2.663,1.935,3.187,6.499,0,10.182c-25.477,10.436-44.159,1.739-50.909-21.817
		c-1.304-4.552-0.088-9.756-1.455-14.546c-9.003-31.563-36.054-76.001-27.636-113.453c-5.425-2.474-2.302,0.859-7.272,1.454
		c-5.836-10.28-4.329-18.232-2.909-29.091c1.436-10.981,9.769-25.449,8.727-34.908c-1.174-10.659-15.825-16.908-16-26.182
		c-0.248-13.161,14.726-17.514,21.818-23.272c-17.737-11.619-20.477-34.018-18.909-52.363c3.69-43.182,29.908-83.198,78.545-78.545
		c17.287,1.654,34.911,11.398,45.091,23.272c12.182,14.211,14.195,41.856,26.182,53.818
		C305.161,191.81,299.604,182.925,293.88,181.817z M311.334,469.814c4.331-6.533,14.783-12.385,13.091-20.363
		C317.505,451.994,311.895,470.52,311.334,469.814z M266.244,315.633c-7.449,2.248-10.383,9.011-20.364,8.728
		c-2.201-5.548,0.464-7.517-4.363-7.272c-1.99-10.22,8.223-13.022,13.091-17.455c7.249-6.601,12.472-16.056,21.818-20.363
		c2.114-0.795,7.518,1.7,7.272-1.455c-3.316-2.558-9.013-10.306-7.272-13.091c4.494,5.876,5.921,13.344,13.091,14.545
		c6.585,1.103,13.763-5.839,21.818-10.182c7.828-4.221,18.569-5.38,15.999-13.091c-18.609-7.611-43.081,9.657-62.544-1.455
		c0.08-1.86,1.864-2.015,1.455-4.364c-6.15-0.693-16.25-3.368-13.091-8.727c4.578,2.209,8.727,4.849,14.545,5.818
		c10.726-8.271,21.109-19.331,17.454-37.818c-7.083,2.234-4.365-5.332-7.272-7.272c-2.75,1.613-5.099,3.628-8.727,4.364
		c-0.228-8.015-4.909-11.576-10.182-14.545c-6.749,1.044-16.622,6.603-21.818,4.363c7.023-3.158,16.108-4.256,21.818-8.727
		c-2.007-0.141-5.675-5.678-2.909-5.818c4.69,7.431,11.477,12.765,16,20.363c5.482-8.09,1.369-20.28,1.455-32
		c0.024-3.285,1.977-5.645,1.455-8.727c-1.867-11.026-9.744-17.618-13.091-26.182c18.482,9.155,12.503,42.769,24.727,58.182
		c1.887-14.025-2.775-29.202-2.909-36.364c3.133,6.08,3.891,14.534,5.818,21.818c-0.286,3.005-0.052,16.694,1.455,8.727
		c-1.989-10.51,1.764-21.101,0-29.091c-4.712-21.346-35.999-40.382-56.727-42.181c-38.26-3.32-72.801,29.975-69.817,66.908
		c-0.407-3.315,0.35-5.468,2.909-5.818c1.145,25.037,3.264,49.099,14.545,64c6.942-5.873,12.468-4.139,20.363-8.728
		c-7.353-1.459-17.049-19.593-4.364-23.272c6.278,5.358,8.641,14.632,11.636,23.272c3.864-0.015,8.307,0.55,10.182-1.454
		c1.355-11.561-5.917-22.174-4.364-29.091c7.145,2.553,3.506,15.887,11.636,17.455c-1.764-12.935,8.344-21.69,2.909-33.455
		c-7.736,4.779-18.155-0.233-20.364-5.818c-1.146,7.02,3.582,15.738,1.455,18.909c-11.383-18.223-0.037-52.599,14.545-53.817
		c-5.523,7.083-12.933,12.278-14.545,23.272c8.957,3.649,16.62,8.592,26.182,11.636c5.797-6.432,9.871-13.457,10.182-21.818
		c-1.799,6.246,5.664,10.709,1.455,14.545c-0.228-1.711,0.25-4.129-1.455-4.363c-7.481,18.7-19.114,33.249-17.454,61.09
		c2.45,3.368,8.068,3.567,10.182,7.272c-34.121-4.261-66.701,4.558-81.454,27.636c2.607,11.453,10.313,17.808,16,26.182
		c17.686,1.231,35.658,9.907,37.818,21.818c-6.042,0.646-12.549-5.791-17.454-1.455c20.113,12.371,37.366,27.604,61.09,36.363
		c0.316-7.927,4.067-17.04-2.909-20.363C257.531,324.945,268.336,314.88,266.244,315.633z M256.062,328.724
		c9.163-0.558,13.452-13.665,23.272-8.727c-0.323,6.949-8.307,6.238-10.182,11.636c20.233-5.947,30.752-21.61,42.182-36.363
		c21.81,0.416,47.729-9.118,31.999-29.091c-28.29-6.643-41.005,20.313-65.454,17.455c1.467,0.017,1.83,2.549,0,2.909
		c-6.438,2.84-12.481,8.159-18.909,13.091c-5.312,4.076-15.498,8.047-13.091,16c5.043-3.713,12.739-12.433,17.455-11.636
		c-1.146,9.768-18.02,10.734-16,18.909c9.721-1.922,19.148-15.666,24.727-8.728C268.881,321.18,259.89,322.371,256.062,328.724z
		 M299.698,180.362c-3.666-2.637-3.607-8.999-7.272-11.636C292.264,174.284,295.705,183.786,299.698,180.362z M234.244,184.726
		c0.87,2.59-4.263,6.041,0,7.273c-0.697-4.576,2.072-5.686,2.909-8.728c-9.401-3.205-17.823-7.388-26.182-11.636
		C210.501,184.226,221.167,185.682,234.244,184.726z M276.425,197.816c2.75,0.326,3.209-1.639,5.818-1.455
		c-0.74-3.624,0.047-8.775-4.364-8.727C277.865,191.499,278.429,195.942,276.425,197.816z M176.063,238.543
		c-9.181-11.667-8.523-33.174-13.091-49.454C162.13,209.817,165.843,233.723,176.063,238.543z M206.608,231.271
		c-3.45-4.308-5.352-10.164-5.818-17.455C186.911,214.953,203.722,233.461,206.608,231.271z M228.426,231.271
		c-2.748-0.162-1.009-4.809-4.364-4.364C222.067,231.05,226.67,235.653,228.426,231.271z M285.152,241.453
		c-0.836-2.557,1.758-8.546-1.455-8.728C281.217,235.072,282.366,240.223,285.152,241.453z M277.88,253.089
		c2.654,0.393,8.153,5.236,10.182,1.455c-2.844-4.913-4-11.515-8.727-14.545C280.112,245.625,276.738,247.099,277.88,253.089z
		 M274.971,250.18c-1.391-2.709,4.356-4.861,0-5.818C274.545,245.254,271.353,249.961,274.971,250.18z M184.79,295.271
		c-2.176,0.248-5.368-0.52-5.818,1.454C180.905,298.614,184.384,298.642,184.79,295.271z M164.426,347.633
		c8.857,7.153,28.408,11.335,42.182,8.728c-4.62-1.221,2.582-1.919,4.363-1.455c0-9.696,0-19.394,0-29.09
		c-12.879-8.938-26.142-17.495-36.363-29.091C169.124,311.605,166.393,329.237,164.426,347.633z M194.972,302.543
		c-4.449-1.055-4.278,2.509-8.728,1.455c-0.248-2.176,0.52-5.368-1.455-5.818C176.832,300.575,194.085,313.457,194.972,302.543z
		 M200.79,302.543C194.91,297.427,197.359,307.222,200.79,302.543L200.79,302.543z M270.607,378.179
		c-3.415,0.463-5.459,2.297-10.182,1.454c-6.408-4.743-3.928-18.375-4.363-29.091c-16.372-4.477-25.881-15.815-40.727-21.818
		c-2.795,7.872-0.912,20.422-1.455,30.546c-2.129,3.374-4.61-2.842-4.364,2.909c6.466,33.474,3.293,67.592,10.182,100.362
		c8.042,6.504,18.139,10.951,18.909,24.728c6.366-0.104,8.489,2.337,4.364,5.817c5.818,0,11.636,0,17.454,0
		c-11.73-18.637-11.907-48.257-10.182-74.181c-7.786,15.437-12.721,36.656-11.636,56.727c-9.466-31.053,10.344-54.718,20.363-75.636
		c-12.484,3.525-19.801,19.942-27.636,23.272C241.14,404.954,263.795,399.488,270.607,378.179z M282.244,363.633
		c2.608-6.604,7.688-10.736,11.636-16C285.76,347.789,281.147,359.1,282.244,363.633z M176.063,363.633
		c-6.382,42.951,18.126,68.177,26.182,101.817c3.397,14.188,2.327,40.016,24.727,36.363c-3.014-4.779-9.55-13.675-4.364-21.818
		c-0.373,11.04,5.822,15.512,8.728,23.273c-0.651,1.751-6.258-0.37-7.273,4.363c11.885,1.219,18.703-2.63,26.182-5.818
		c-3.322-3.924-7.348-2.813-10.182-4.363c-5.866-6.255-6.854-17.389-11.636-24.728c-3.454-2.849-10.116-2.49-11.636-7.272
		c-5.035-26.965-5.968-58.031-14.545-81.454c5.499-3.111,4.821-18.917,4.364-23.272c-12.353-2.526-18.293,3.39-30.545-1.454
		C175.496,361.345,174.317,361.723,176.063,363.633z M209.517,395.633c-0.668-5.205,1.522-20.842-1.455-18.909
		C208.731,381.929,206.54,397.566,209.517,395.633z M372.424,462.542c6.783-2.429,14.251-4.173,17.455-10.182
		c-12.343-6.567-21.52-16.299-30.546-26.182C363.736,438.261,366.547,451.934,372.424,462.542z M314.244,471.269
		c6.629-2.098,12.455-4.999,17.454-8.728c-2.902-1.462-2.296-6.432-7.272-5.818C322.04,462.581,317.753,466.537,314.244,471.269z
		 M331.698,466.905C320.146,467.675,338.82,466.43,331.698,466.905L331.698,466.905z M336.061,477.087
		c2.564-0.417,4.504,6.849,5.818,2.908c-1.771-3.077-5.474-4.224-5.818-8.727c-6.371,3.325-19.632-0.238-23.272,5.818
		C319.542,482.724,327.343,477.377,336.061,477.087z M350.607,497.451c-1.128-4.69-3.041-8.596-5.818-11.637
		C345.777,490.644,346.117,496.123,350.607,497.451z"/>
	<path fill-rule="evenodd" clip-rule="evenodd" fill="#FFFFFF" d="M1.519,0c202.665,0,405.33,0,607.995,0
		c0,203.15,0,406.299,0,609.45c-203.149,0-406.299,0-609.449,0c0-201.696,0-403.391,0-605.086C-0.061,2.299-0.176,0.245,1.519,0z
		 M308.425,190.544c-11.987-11.962-14-39.607-26.182-53.818c-10.18-11.875-27.804-21.619-45.091-23.272
		c-48.637-4.653-74.855,35.363-78.545,78.545c-1.567,18.345,1.172,40.744,18.909,52.363c-7.092,5.758-22.066,10.112-21.818,23.272
		c0.174,9.274,14.826,15.523,16,26.182c1.042,9.459-7.291,23.927-8.727,34.908c-1.42,10.858-2.927,18.811,2.909,29.091
		c4.97-0.595,1.848-3.928,7.272-1.454c-8.418,37.452,18.633,81.89,27.636,113.453c1.366,4.79,0.15,9.994,1.455,14.546
		c6.75,23.557,25.432,32.253,50.909,21.817c3.187-3.683-2.663-8.247,0-10.182c17.011,9.082,47.506-2.75,56.727-18.908
		c6.182,9.175,16.346,2.647,27.637,2.908c16.703,9.18-0.992,51.502,20.363,50.909c-17.444-3.43-3.254-31.255-5.818-40.727
		c0.063,1.547-0.685,3.693-1.454,1.454c-14.574-36.335-45.923-55.895-52.364-100.363c2.182-1.013-1.448-8.746-1.455-8.727
		c-0.801,2.439-0.311,10.253,0,13.091c2.059,18.786,15.777,41.001,23.272,52.363c-8.219,16.022-18.296,30.188-29.09,43.636
		c-7.185,2.512-15.888,3.506-26.182,2.909c-5.356-19.059-13.523-32.946-13.091-53.817c0.231-11.164,3.142-25.709,7.272-34.909
		c1.467-3.268,5.587-5.575,7.273-8.728c1.314-2.457,0.271-6.422,1.455-8.727c0.91-1.772,4.681-2.355,5.818-4.364
		c3.264-5.767,4.964-10.593,8.728-16c9.518-13.673,20.055-27.783,33.454-34.908c7.261,5.6,15.003,3.392,20.363,10.182
		c5.606,7.102,3.035,17.523,7.272,27.636c-0.337-11.299-1-22.271-4.363-30.545c-6.593-4.559-17.105-5.197-23.272-10.182
		c-11.202,4.916-15.487,17.354-29.091,16c-8.336,9.228-10.424,32.095-24.727,30.545c-6.275-10.209-1.337-31.633-2.909-46.545
		c5.499-0.32,7.064-4.572,11.636-5.818c-0.469,4.067-13.374,8.99-5.818,11.637c8.476-2.768,15.842-4.445,21.818-8.728
		c9.787-7.013,19.167-26.235,29.091-30.545c7.88-3.422,17.362-0.055,27.636-4.363c23.688,27.221,46.144,55.674,53.818,98.908
		c-10.84-5.711-18.088-16.89-33.454-17.454c-8.167-0.3-19.447,7.388-20.364-1.454c0.367,16.896,10.104,40.813,11.637,56.727
		c12.796,19.688,13.051,51.918,32,65.454c10.844,22.125,37.453,28.485,53.817,45.091c-18.063-0.7-32.897,6.295-49.454,2.908
		c-10.942-2.237-20.756-15.255-32-8.727c4.953,1.35,8.531,4.075,16,2.909c14.972,15.448,45.276,7.551,68.363,4.363
		c-1.762-12.58-16.143-15.108-24.728-20.363c-21.801-13.345-36.799-29.531-46.545-53.818c9.225-1.441,12.611-8.722,20.363-11.636
		c18.147,16.276,45.617,23.231,69.818,33.454c-1.591,18.814,2.202,27.865,14.545,29.091c4.999,0.496,10.093-4.472,16-4.363
		c8.776,0.16,11.54,7.934,18.909,4.363c-7.486-2.732-16.976-6.09-20.364-8.728c-5.93,2.211-7.853,6.015-13.091,5.818
		c-12.206-0.457-16.073-15.295-11.636-29.091c-47.151-12-82.82-35.481-110.545-66.908c-3.164-13.321-7.124-25.845-10.182-39.272
		c20.944-9.698,34.745,3.428,49.454,14.545c29.108,22.002,58.198,50.987,80,72.727c32.22,7.539,49.827,37.442,78.545,43.637
		c-10.218-6.787-22.278-9.776-32-17.455c-3.277-2.588-5.214-7.601-8.728-10.182c-11.776-8.649-32.633-15.185-42.182-23.272
		c-23.898-20.242-43.033-48.324-69.817-65.454c-8.405-44.927-29.604-77.061-56.727-103.271c4.324-2.949,7.247-7.298,8.727-13.091
		c-2.848-5.395-5.156-11.328-8.727-16c-3.879,0-7.758,0-11.637,0c-2.423-1.941-0.486-8.241-2.909-10.182
		c-13.594-4.164-26.361,1.881-39.272,2.909c-4.063-13.659-5.14-43.265,0-56.727c1.357,4.731-5.65,13.39,1.455,14.545
		c2.321-8.346,1.23-20.103,1.455-30.545C299.604,182.925,305.161,191.81,308.425,190.544z M298.243,340.361
		c-0.84-4.556-3.984-14.355-7.272-11.637C295.222,330.776,292.509,339.792,298.243,340.361z M161.517,482.905
		c-10.029,25.828,2.86,54.216,32,40.728c12.225-8.782,6.335-32.952,0-43.637C183.058,476.971,169.226,478.807,161.517,482.905z
		 M554.242,523.632c6.283-0.121,4.413-9.265,1.454-11.637C556.333,516.996,555.121,520.148,554.242,523.632z M551.333,523.632
		c-0.146-3.364-6.397-7.994-8.728-4.364C546.386,519.85,546.992,523.609,551.333,523.632z M552.787,525.086
		c-18.24,2.098-30.402-1.295-39.272-4.363C522.069,528.637,542.133,530.104,552.787,525.086z"/>
	<path fill-rule="evenodd" clip-rule="evenodd" fill="#FFFFFF" d="M324.425,449.451c1.692,7.979-8.76,13.83-13.091,20.363
		C311.895,470.52,317.505,451.994,324.425,449.451z"/>
	<path fill-rule="evenodd" clip-rule="evenodd" fill="#FFFFFF" d="M253.153,327.27c6.977,3.323,3.225,12.437,2.909,20.363
		c-23.725-8.76-40.977-23.992-61.09-36.363c4.905-4.335,11.412,2.101,17.454,1.455c-2.16-11.911-20.132-20.587-37.818-21.818
		c-5.687-8.374-13.393-14.729-16-26.182c14.753-23.078,47.333-31.897,81.454-27.636c-2.113-3.705-7.732-3.904-10.182-7.272
		c-1.66-27.842,9.973-42.39,17.454-61.09c1.705,0.234,1.227,2.652,1.455,4.363c4.209-3.836-3.253-8.299-1.455-14.545
		c-0.311,8.361-4.384,15.387-10.182,21.818c-9.562-3.044-17.225-7.987-26.182-11.636c1.612-10.994,9.022-16.19,14.545-23.272
		c-14.583,1.219-25.928,35.595-14.545,53.817c2.127-3.17-2.601-11.889-1.455-18.909c2.209,5.584,12.627,10.597,20.364,5.818
		c5.435,11.764-4.673,20.52-2.909,33.455c-8.13-1.567-4.492-14.902-11.636-17.455c-1.553,6.917,5.719,17.53,4.364,29.091
		c-1.875,2.004-6.318,1.439-10.182,1.454c-2.995-8.641-5.358-17.914-11.636-23.272c-12.686,3.679-2.989,21.813,4.364,23.272
		c-7.896,4.588-13.421,2.855-20.363,8.728c-11.282-14.9-13.4-38.963-14.545-64c-2.559,0.35-3.316,2.502-2.909,5.818
		c-2.983-36.934,31.557-70.229,69.817-66.908c20.729,1.799,52.015,20.835,56.727,42.181c1.764,7.99-1.989,18.581,0,29.091
		c-1.506,7.967-1.741-5.722-1.455-8.727c-1.928-7.284-2.686-15.738-5.818-21.818c0.134,7.162,4.796,22.339,2.909,36.364
		c-12.224-15.413-6.245-49.027-24.727-58.182c3.347,8.564,11.224,15.156,13.091,26.182c0.522,3.083-1.43,5.442-1.455,8.727
		c-0.086,11.72,4.027,23.91-1.455,32c-4.522-7.598-11.309-12.933-16-20.363c-2.767,0.14,0.901,5.677,2.909,5.818
		c-5.71,4.471-14.794,5.569-21.818,8.727c5.196,2.239,15.069-3.319,21.818-4.363c5.273,2.97,9.954,6.53,10.182,14.545
		c3.628-0.735,5.977-2.75,8.727-4.364c2.908,1.94,0.19,9.507,7.272,7.272c3.655,18.487-6.728,29.547-17.454,37.818
		c-5.819-0.969-9.967-3.608-14.545-5.818c-3.159,5.359,6.941,8.034,13.091,8.727c0.41,2.349-1.375,2.504-1.455,4.364
		c19.463,11.112,43.935-6.156,62.544,1.455c2.57,7.71-8.171,8.87-15.999,13.091c-8.056,4.342-15.233,11.285-21.818,10.182
		c-7.169-1.201-8.597-8.669-13.091-14.545c-1.741,2.785,3.957,10.533,7.272,13.091c0.245,3.154-5.159,0.659-7.272,1.455
		c-9.346,4.307-14.569,13.762-21.818,20.363c-4.868,4.433-15.081,7.234-13.091,17.455c4.827-0.244,2.163,1.725,4.363,7.272
		c9.98,0.283,12.915-6.479,20.364-8.728C268.336,314.88,257.531,324.945,253.153,327.27z M190.608,189.089
		c0.371,5.509,1.315,16.264,7.272,14.545c-4.724-9.654-5.8-27.04-2.909-39.272c1.391-5.885,9.025-12.055,4.363-13.091
		C194.775,157.565,189.749,176.318,190.608,189.089z M251.698,205.089c3.315,0.406,5.468-0.351,5.818-2.909
		C254.201,201.773,252.049,202.53,251.698,205.089z M234.244,216.726c6.714,0.896,8.371-3.266,14.545-2.909
		c-0.333,5.181,2.092,7.605,7.273,7.272c6.082-3.702,5.825-9.268,4.363-14.545C249.847,208.086,236.016,206.376,234.244,216.726z
		 M235.698,228.362c2.735,3.863,14.334-0.203,8.728-4.364c-0.351,2.559-2.503,3.316-5.818,2.909
		c0.348-2.076,2.396-2.453,2.909-4.364C236.963,221.869,235.023,223.808,235.698,228.362z M264.789,241.453
		c4.334-0.029,8.863,0.135,8.727-4.364C269.8,237.736,266.829,239.129,264.789,241.453z M200.79,282.18
		c2.489,3.931,8.456,10.104,14.545,5.818C217,278.74,202.627,270.843,200.79,282.18z M225.517,311.27
		c5.802-4.886,15.207-13.855,14.545-20.363C234.952,297.433,228.831,302.949,225.517,311.27z M235.698,315.633
		c1.504-7.252,13.943-11.229,10.182-18.909C243.795,303.397,232.64,308.657,235.698,315.633z"/>
	<path fill-rule="evenodd" clip-rule="evenodd" fill="#FFFFFF" d="M292.425,168.726c3.666,2.637,3.607,8.999,7.272,11.636
		C295.705,183.786,292.264,174.284,292.425,168.726z"/>
	<path fill-rule="evenodd" clip-rule="evenodd" fill="#FFFFFF" d="M210.971,171.635c8.358,4.248,16.781,8.432,26.182,11.636
		c-0.837,3.042-3.606,4.152-2.909,8.728c-4.263-1.232,0.87-4.683,0-7.273C221.167,185.682,210.501,184.226,210.971,171.635z
		 M213.88,175.999c0,0.97,0,1.939,0,2.909c1.459-0.005,1.731,1.178,2.909,1.455c0.08-1.86,1.864-2.015,1.455-4.364
		C216.79,175.999,215.335,175.999,213.88,175.999z"/>
	<path fill-rule="evenodd" clip-rule="evenodd" fill="#FFFFFF" d="M162.972,189.089c4.568,16.28,3.91,37.787,13.091,49.454
		C165.843,233.723,162.13,209.817,162.972,189.089z"/>
	<path fill-rule="evenodd" clip-rule="evenodd" fill="#FFFFFF" d="M200.79,213.816c0.467,7.291,2.369,13.146,5.818,17.455
		C203.722,233.461,186.911,214.953,200.79,213.816z"/>
	<path fill-rule="evenodd" clip-rule="evenodd" fill="#FFFFFF" d="M184.79,298.179c1.974,0.45,1.207,3.642,1.455,5.818
		c4.449,1.055,4.278-2.51,8.728-1.455C194.085,313.457,176.832,300.575,184.79,298.179z"/>
	<path fill-rule="evenodd" clip-rule="evenodd" d="M290.971,328.724c3.289-2.719,6.432,7.081,7.272,11.637
		C292.509,339.792,295.222,330.776,290.971,328.724z"/>
	<path fill-rule="evenodd" clip-rule="evenodd" fill="#FFFFFF" d="M293.88,347.633c-3.949,5.264-9.028,9.396-11.636,16
		C281.147,359.1,285.76,347.789,293.88,347.633z"/>
	<path fill-rule="evenodd" clip-rule="evenodd" fill="#FFFFFF" d="M312.789,477.087c3.641-6.057,16.901-2.493,23.272-5.818
		c0.345,4.503,4.048,5.649,5.818,8.727c-1.314,3.94-3.254-3.325-5.818-2.908C327.343,477.377,319.542,482.724,312.789,477.087z"/>
	<path fill-rule="evenodd" clip-rule="evenodd" d="M193.517,479.996c6.335,10.685,12.225,34.854,0,43.637
		c-29.14,13.488-42.029-14.899-32-40.728C169.226,478.807,183.058,476.971,193.517,479.996z M161.517,510.542
		c0.263,15.074,16.719,13.874,30.545,11.636c9.899-7.831,5.613-30.276,0-39.272c-7.329,3.338-21.762-0.429-29.091,2.909
		c-1.169,7.534-2.436,18.398,0,21.818c2.657-2.573,3.026-12.246,7.273-8.728C166.593,502.042,165.657,507.893,161.517,510.542z
		 M186.244,479.996c-2.176,0.248-5.368-0.52-5.818,1.455C182.603,481.203,185.794,481.97,186.244,479.996z M178.972,481.451
		c-3.014,0.865-9.555-1.798-10.182,1.454C171.803,482.04,178.345,484.703,178.972,481.451z"/>
	<path fill-rule="evenodd" clip-rule="evenodd" d="M186.244,500.36c-1.83-0.36-1.467-2.893,0-2.909
		c-0.945-1.479-3.344-1.504-2.909-4.364c4.855,1.934,7.206,6.37,11.637,8.728C193.752,506.158,189.255,494.224,186.244,500.36z"/>
	<path fill-rule="evenodd" clip-rule="evenodd" d="M180.426,501.814c-0.162,2.748-4.809,1.01-4.364,4.363
		c-2.559-0.35-3.315-2.502-2.909-5.817c2.474-0.535,2.745,1.134,2.909,2.909C177.232,502.499,178.424,501.751,180.426,501.814z"/>
	<path fill-rule="evenodd" clip-rule="evenodd" d="M513.514,520.723c8.87,3.068,21.032,6.461,39.272,4.363
		C542.133,530.104,522.069,528.637,513.514,520.723z"/>
	<path fill-rule="evenodd" clip-rule="evenodd" fill="#FFFFFF" d="M170.245,498.905c-4.247-3.519-4.616,6.154-7.273,8.728
		c-2.436-3.42-1.169-14.284,0-21.818c7.329-3.338,21.762,0.429,29.091-2.909c5.613,8.996,9.899,31.441,0,39.272
		c-13.826,2.238-30.283,3.438-30.545-11.636C165.657,507.893,166.593,502.042,170.245,498.905z M174.608,498.905
		c1.314-2.534,3.254-5.603,5.818-2.909C180.908,488.406,169.244,497.167,174.608,498.905z M194.972,501.814
		c-4.431-2.357-6.782-6.794-11.637-8.728c-0.435,2.86,1.964,2.885,2.909,4.364c-1.467,0.017-1.83,2.549,0,2.909
		C189.255,494.224,193.752,506.158,194.972,501.814z M176.063,503.269c-0.165-1.775-0.435-3.444-2.909-2.909
		c-0.406,3.315,0.351,5.468,2.909,5.817c-0.445-3.354,4.202-1.615,4.364-4.363C178.424,501.751,177.232,502.499,176.063,503.269z
		 M174.608,507.632c-2.176,0.248-5.368-0.52-5.818,1.454C170.966,508.838,174.158,509.606,174.608,507.632z M180.426,511.996
		c-2.114,0.796-7.518-1.699-7.273,1.455C175.267,512.655,180.671,515.15,180.426,511.996z"/>
</g>
</svg>
